%TF.GenerationSoftware,KiCad,Pcbnew,7.0.1*%
%TF.CreationDate,2023-03-28T18:38:33-04:00*%
%TF.ProjectId,project,70726f6a-6563-4742-9e6b-696361645f70,rev?*%
%TF.SameCoordinates,Original*%
%TF.FileFunction,Paste,Top*%
%TF.FilePolarity,Positive*%
%FSLAX46Y46*%
G04 Gerber Fmt 4.6, Leading zero omitted, Abs format (unit mm)*
G04 Created by KiCad (PCBNEW 7.0.1) date 2023-03-28 18:38:33*
%MOMM*%
%LPD*%
G01*
G04 APERTURE LIST*
%ADD10R,1.200000X0.900000*%
G04 APERTURE END LIST*
D10*
%TO.C,D14*%
X80808300Y-152020000D03*
X80808300Y-155320000D03*
%TD*%
%TO.C,D40*%
X166527900Y-132970000D03*
X166527900Y-136270000D03*
%TD*%
%TO.C,D58*%
X247479900Y-75820000D03*
X247479900Y-79120000D03*
%TD*%
%TO.C,D74*%
X285582900Y-171070000D03*
X285582900Y-174370000D03*
%TD*%
%TO.C,D67*%
X261771900Y-132970000D03*
X261771900Y-136270000D03*
%TD*%
%TO.C,D34*%
X147479100Y-132970000D03*
X147479100Y-136270000D03*
%TD*%
%TO.C,D42*%
X190333500Y-75820000D03*
X190333500Y-79120000D03*
%TD*%
%TO.C,D33*%
X142716900Y-113920000D03*
X142716900Y-117220000D03*
%TD*%
%TO.C,D8*%
X49854000Y-152020000D03*
X49854000Y-155320000D03*
%TD*%
%TO.C,D21*%
X114138300Y-75820000D03*
X114138300Y-79120000D03*
%TD*%
%TO.C,D64*%
X266528700Y-75820000D03*
X266528700Y-79120000D03*
%TD*%
%TO.C,D73*%
X278439600Y-152020000D03*
X278439600Y-155320000D03*
%TD*%
%TO.C,D77*%
X299869500Y-113920000D03*
X299869500Y-117220000D03*
%TD*%
%TO.C,D35*%
X157003500Y-152020000D03*
X157003500Y-155320000D03*
%TD*%
%TO.C,D46*%
X195101100Y-152020000D03*
X195101100Y-155320000D03*
%TD*%
%TO.C,D3*%
X42710700Y-113920000D03*
X42710700Y-117220000D03*
%TD*%
%TO.C,D19*%
X90332700Y-132970000D03*
X90332700Y-136270000D03*
%TD*%
%TO.C,D9*%
X61759500Y-171070000D03*
X61759500Y-174370000D03*
%TD*%
%TO.C,D81*%
X323680500Y-94870000D03*
X323680500Y-98170000D03*
%TD*%
%TO.C,D25*%
X118905900Y-152020000D03*
X118905900Y-155320000D03*
%TD*%
%TO.C,D70*%
X285582900Y-94870000D03*
X285582900Y-98170000D03*
%TD*%
%TO.C,D18*%
X85570500Y-113920000D03*
X85570500Y-117220000D03*
%TD*%
%TO.C,D10*%
X76040700Y-75820000D03*
X76040700Y-79120000D03*
%TD*%
%TO.C,D79*%
X304631700Y-171070000D03*
X304631700Y-174370000D03*
%TD*%
%TO.C,D44*%
X180814500Y-113920000D03*
X180814500Y-117220000D03*
%TD*%
%TO.C,D52*%
X228431100Y-75820000D03*
X228431100Y-79120000D03*
%TD*%
%TO.C,D51*%
X214149900Y-152020000D03*
X214149900Y-155320000D03*
%TD*%
%TO.C,D55*%
X223674300Y-132970000D03*
X223674300Y-136270000D03*
%TD*%
%TO.C,D32*%
X152241300Y-94870000D03*
X152241300Y-98170000D03*
%TD*%
%TO.C,D75*%
X304626300Y-75820000D03*
X304626300Y-79120000D03*
%TD*%
%TO.C,D1*%
X37943100Y-75820000D03*
X37943100Y-79120000D03*
%TD*%
%TO.C,D49*%
X199863300Y-113920000D03*
X199863300Y-117220000D03*
%TD*%
%TO.C,D37*%
X171284700Y-75820000D03*
X171284700Y-79120000D03*
%TD*%
%TO.C,D54*%
X218912100Y-113920000D03*
X218912100Y-117220000D03*
%TD*%
%TO.C,D28*%
X123668100Y-113920000D03*
X123668100Y-117220000D03*
%TD*%
%TO.C,D48*%
X209387700Y-94870000D03*
X209387700Y-98170000D03*
%TD*%
%TO.C,D31*%
X152235900Y-75820000D03*
X152235900Y-79120000D03*
%TD*%
%TO.C,D71*%
X276058500Y-113920000D03*
X276058500Y-117220000D03*
%TD*%
%TO.C,D80*%
X323675100Y-75820000D03*
X323675100Y-79120000D03*
%TD*%
%TO.C,D17*%
X95094900Y-94870000D03*
X95094900Y-98170000D03*
%TD*%
%TO.C,D16*%
X95089500Y-75820000D03*
X95089500Y-79120000D03*
%TD*%
%TO.C,D39*%
X161765700Y-113920000D03*
X161765700Y-117220000D03*
%TD*%
%TO.C,D45*%
X185576700Y-132970000D03*
X185576700Y-136270000D03*
%TD*%
%TO.C,D69*%
X285577500Y-75820000D03*
X285577500Y-79120000D03*
%TD*%
%TO.C,D13*%
X71283900Y-132970000D03*
X71283900Y-136270000D03*
%TD*%
%TO.C,D11*%
X76046100Y-94870000D03*
X76046100Y-98170000D03*
%TD*%
%TO.C,D5*%
X40329600Y-171070000D03*
X40329600Y-174370000D03*
%TD*%
%TO.C,D38*%
X171290100Y-94870000D03*
X171290100Y-98170000D03*
%TD*%
%TO.C,D50*%
X204625500Y-132970000D03*
X204625500Y-136270000D03*
%TD*%
%TO.C,D22*%
X114143700Y-94870000D03*
X114143700Y-98170000D03*
%TD*%
%TO.C,D20*%
X99857100Y-152020000D03*
X99857100Y-155320000D03*
%TD*%
%TO.C,D29*%
X128430300Y-132970000D03*
X128430300Y-136270000D03*
%TD*%
%TO.C,D60*%
X237960900Y-113920000D03*
X237960900Y-117220000D03*
%TD*%
%TO.C,D30*%
X137954700Y-152020000D03*
X137954700Y-155320000D03*
%TD*%
%TO.C,D82*%
X323680500Y-113920000D03*
X323680500Y-117220000D03*
%TD*%
%TO.C,D2*%
X37948500Y-94870000D03*
X37948500Y-98170000D03*
%TD*%
%TO.C,D23*%
X104619300Y-113920000D03*
X104619300Y-117220000D03*
%TD*%
%TO.C,D26*%
X133187100Y-75820000D03*
X133187100Y-79120000D03*
%TD*%
%TO.C,D66*%
X257009700Y-113920000D03*
X257009700Y-117220000D03*
%TD*%
%TO.C,D36*%
X151447600Y-171070000D03*
X151447600Y-174370000D03*
%TD*%
%TO.C,D53*%
X228436500Y-94870000D03*
X228436500Y-98170000D03*
%TD*%
%TO.C,D56*%
X233198700Y-152020000D03*
X233198700Y-155320000D03*
%TD*%
%TO.C,D62*%
X252247500Y-152020000D03*
X252247500Y-155320000D03*
%TD*%
%TO.C,D83*%
X323680500Y-132970000D03*
X323680500Y-136270000D03*
%TD*%
%TO.C,D65*%
X266534100Y-94870000D03*
X266534100Y-98170000D03*
%TD*%
%TO.C,D84*%
X323680500Y-152020000D03*
X323680500Y-155320000D03*
%TD*%
%TO.C,D59*%
X247485300Y-94870000D03*
X247485300Y-98170000D03*
%TD*%
%TO.C,D43*%
X190338900Y-94870000D03*
X190338900Y-98170000D03*
%TD*%
%TO.C,D68*%
X264153000Y-171070000D03*
X264153000Y-174370000D03*
%TD*%
%TO.C,D12*%
X66521700Y-113920000D03*
X66521700Y-117220000D03*
%TD*%
%TO.C,D7*%
X56997300Y-94870000D03*
X56997300Y-98170000D03*
%TD*%
%TO.C,D24*%
X109381500Y-132970000D03*
X109381500Y-136270000D03*
%TD*%
%TO.C,D41*%
X176052300Y-152020000D03*
X176052300Y-155320000D03*
%TD*%
%TO.C,D27*%
X133192500Y-94870000D03*
X133192500Y-98170000D03*
%TD*%
%TO.C,D76*%
X304631700Y-94870000D03*
X304631700Y-98170000D03*
%TD*%
%TO.C,D78*%
X304631700Y-152020000D03*
X304631700Y-155320000D03*
%TD*%
%TO.C,D15*%
X83189400Y-171070000D03*
X83189400Y-174370000D03*
%TD*%
%TO.C,D61*%
X242723100Y-132970000D03*
X242723100Y-136270000D03*
%TD*%
%TO.C,D57*%
X221293200Y-171070000D03*
X221293200Y-174370000D03*
%TD*%
%TO.C,D85*%
X323680500Y-171070000D03*
X323680500Y-174370000D03*
%TD*%
%TO.C,D4*%
X45091800Y-132970000D03*
X45091800Y-136270000D03*
%TD*%
%TO.C,D47*%
X209382300Y-75820000D03*
X209382300Y-79120000D03*
%TD*%
%TO.C,D63*%
X242723100Y-171070000D03*
X242723100Y-174370000D03*
%TD*%
%TO.C,D6*%
X56991900Y-75820000D03*
X56991900Y-79120000D03*
%TD*%
%TO.C,D72*%
X292726200Y-132970000D03*
X292726200Y-136270000D03*
%TD*%
M02*
