%TF.GenerationSoftware,KiCad,Pcbnew,7.0.1*%
%TF.CreationDate,2023-03-28T18:38:34-04:00*%
%TF.ProjectId,project,70726f6a-6563-4742-9e6b-696361645f70,rev?*%
%TF.SameCoordinates,Original*%
%TF.FileFunction,Soldermask,Bot*%
%TF.FilePolarity,Negative*%
%FSLAX46Y46*%
G04 Gerber Fmt 4.6, Leading zero omitted, Abs format (unit mm)*
G04 Created by KiCad (PCBNEW 7.0.1) date 2023-03-28 18:38:34*
%MOMM*%
%LPD*%
G01*
G04 APERTURE LIST*
%ADD10C,2.200000*%
%ADD11C,1.700000*%
%ADD12C,4.000000*%
%ADD13C,3.050000*%
%ADD14C,1.750000*%
%ADD15R,1.800000X2.200000*%
%ADD16R,0.300000X1.300000*%
G04 APERTURE END LIST*
D10*
%TO.C,SW18*%
X89535000Y-113030000D03*
X95885000Y-110490000D03*
D11*
X98425000Y-115570000D03*
D12*
X93345000Y-115570000D03*
D11*
X88265000Y-115570000D03*
%TD*%
D10*
%TO.C,SW11*%
X80010000Y-93980000D03*
X86360000Y-91440000D03*
D11*
X88900000Y-96520000D03*
D12*
X83820000Y-96520000D03*
D11*
X78740000Y-96520000D03*
%TD*%
D10*
%TO.C,SW79*%
X308610000Y-170180000D03*
X314960000Y-167640000D03*
D11*
X317500000Y-172720000D03*
D12*
X312420000Y-172720000D03*
D11*
X307340000Y-172720000D03*
%TD*%
D10*
%TO.C,SW30*%
X141922500Y-151130000D03*
X148272500Y-148590000D03*
D11*
X150812500Y-153670000D03*
D12*
X145732500Y-153670000D03*
D11*
X140652500Y-153670000D03*
%TD*%
D10*
%TO.C,SW32*%
X156210000Y-93980000D03*
X162560000Y-91440000D03*
D11*
X165100000Y-96520000D03*
D12*
X160020000Y-96520000D03*
D11*
X154940000Y-96520000D03*
%TD*%
D10*
%TO.C,SW63*%
X246697500Y-170180000D03*
X253047500Y-167640000D03*
D11*
X255587500Y-172720000D03*
D12*
X250507500Y-172720000D03*
D11*
X245427500Y-172720000D03*
%TD*%
D10*
%TO.C,SW6*%
X60960000Y-74930000D03*
X67310000Y-72390000D03*
D11*
X69850000Y-77470000D03*
D12*
X64770000Y-77470000D03*
D11*
X59690000Y-77470000D03*
%TD*%
D10*
%TO.C,SW23*%
X108585000Y-113030000D03*
X114935000Y-110490000D03*
D11*
X117475000Y-115570000D03*
D12*
X112395000Y-115570000D03*
D11*
X107315000Y-115570000D03*
%TD*%
D10*
%TO.C,SW66*%
X260985000Y-113030000D03*
X267335000Y-110490000D03*
D11*
X269875000Y-115570000D03*
D12*
X264795000Y-115570000D03*
D11*
X259715000Y-115570000D03*
%TD*%
D10*
%TO.C,SW68*%
X268128750Y-170180000D03*
X274478750Y-167640000D03*
D11*
X277018750Y-172720000D03*
D12*
X271938750Y-172720000D03*
D11*
X266858750Y-172720000D03*
%TD*%
D10*
%TO.C,SW84*%
X327660000Y-151130000D03*
X334010000Y-148590000D03*
D11*
X336550000Y-153670000D03*
D12*
X331470000Y-153670000D03*
D11*
X326390000Y-153670000D03*
%TD*%
D10*
%TO.C,SW71*%
X280035000Y-113030000D03*
X286385000Y-110490000D03*
D11*
X288925000Y-115570000D03*
D12*
X283845000Y-115570000D03*
D11*
X278765000Y-115570000D03*
%TD*%
D10*
%TO.C,SW46*%
X199072500Y-151130000D03*
X205422500Y-148590000D03*
D11*
X207962500Y-153670000D03*
D12*
X202882500Y-153670000D03*
D11*
X197802500Y-153670000D03*
%TD*%
D10*
%TO.C,SW1*%
X41910000Y-74930000D03*
X48260000Y-72390000D03*
D11*
X50800000Y-77470000D03*
D12*
X45720000Y-77470000D03*
D11*
X40640000Y-77470000D03*
%TD*%
D10*
%TO.C,SW73*%
X282416250Y-151130000D03*
X288766250Y-148590000D03*
D11*
X291306250Y-153670000D03*
D12*
X286226250Y-153670000D03*
D11*
X281146250Y-153670000D03*
%TD*%
D10*
%TO.C,SW36*%
X156210000Y-170180000D03*
X162560000Y-167640000D03*
D12*
X198120000Y-180960000D03*
D13*
X198120000Y-165720000D03*
D14*
X165100000Y-172720000D03*
D12*
X160020000Y-172720000D03*
D14*
X154940000Y-172720000D03*
D12*
X121920000Y-180960000D03*
D13*
X121920000Y-165720000D03*
%TD*%
D10*
%TO.C,SW55*%
X227647500Y-132080000D03*
X233997500Y-129540000D03*
D11*
X236537500Y-134620000D03*
D12*
X231457500Y-134620000D03*
D11*
X226377500Y-134620000D03*
%TD*%
D10*
%TO.C,SW83*%
X327660000Y-132080000D03*
X334010000Y-129540000D03*
D11*
X336550000Y-134620000D03*
D12*
X331470000Y-134620000D03*
D11*
X326390000Y-134620000D03*
%TD*%
D10*
%TO.C,SW81*%
X327660000Y-93980000D03*
X334010000Y-91440000D03*
D11*
X336550000Y-96520000D03*
D12*
X331470000Y-96520000D03*
D11*
X326390000Y-96520000D03*
%TD*%
D10*
%TO.C,SW10*%
X80010000Y-74930000D03*
X86360000Y-72390000D03*
D11*
X88900000Y-77470000D03*
D12*
X83820000Y-77470000D03*
D11*
X78740000Y-77470000D03*
%TD*%
D10*
%TO.C,SW53*%
X232410000Y-93980000D03*
X238760000Y-91440000D03*
D11*
X241300000Y-96520000D03*
D12*
X236220000Y-96520000D03*
D11*
X231140000Y-96520000D03*
%TD*%
D10*
%TO.C,SW13*%
X75247500Y-132080000D03*
X81597500Y-129540000D03*
D11*
X84137500Y-134620000D03*
D12*
X79057500Y-134620000D03*
D11*
X73977500Y-134620000D03*
%TD*%
D10*
%TO.C,SW67*%
X265747500Y-132080000D03*
X272097500Y-129540000D03*
D11*
X274637500Y-134620000D03*
D12*
X269557500Y-134620000D03*
D11*
X264477500Y-134620000D03*
%TD*%
D10*
%TO.C,SW31*%
X156210000Y-74930000D03*
X162560000Y-72390000D03*
D11*
X165100000Y-77470000D03*
D12*
X160020000Y-77470000D03*
D11*
X154940000Y-77470000D03*
%TD*%
D10*
%TO.C,SW61*%
X246697500Y-132080000D03*
X253047500Y-129540000D03*
D11*
X255587500Y-134620000D03*
D12*
X250507500Y-134620000D03*
D11*
X245427500Y-134620000D03*
%TD*%
D10*
%TO.C,SW21*%
X118110000Y-74930000D03*
X124460000Y-72390000D03*
D11*
X127000000Y-77470000D03*
D12*
X121920000Y-77470000D03*
D11*
X116840000Y-77470000D03*
%TD*%
D10*
%TO.C,SW39*%
X165735000Y-113030000D03*
X172085000Y-110490000D03*
D11*
X174625000Y-115570000D03*
D12*
X169545000Y-115570000D03*
D11*
X164465000Y-115570000D03*
%TD*%
D10*
%TO.C,SW37*%
X175260000Y-74930000D03*
X181610000Y-72390000D03*
D11*
X184150000Y-77470000D03*
D12*
X179070000Y-77470000D03*
D11*
X173990000Y-77470000D03*
%TD*%
D10*
%TO.C,SW14*%
X84772500Y-151130000D03*
X91122500Y-148590000D03*
D11*
X93662500Y-153670000D03*
D12*
X88582500Y-153670000D03*
D11*
X83502500Y-153670000D03*
%TD*%
D10*
%TO.C,SW20*%
X103822500Y-151130000D03*
X110172500Y-148590000D03*
D11*
X112712500Y-153670000D03*
D12*
X107632500Y-153670000D03*
D11*
X102552500Y-153670000D03*
%TD*%
D10*
%TO.C,SW17*%
X99060000Y-93980000D03*
X105410000Y-91440000D03*
D11*
X107950000Y-96520000D03*
D12*
X102870000Y-96520000D03*
D11*
X97790000Y-96520000D03*
%TD*%
D10*
%TO.C,SW8*%
X53816250Y-151130000D03*
X60166250Y-148590000D03*
D12*
X69526250Y-161910000D03*
D13*
X69526250Y-146670000D03*
D11*
X62706250Y-153670000D03*
D12*
X57626250Y-153670000D03*
D11*
X52546250Y-153670000D03*
D12*
X45726250Y-161910000D03*
D13*
X45726250Y-146670000D03*
%TD*%
D10*
%TO.C,SW4*%
X49053750Y-132080000D03*
X55403750Y-129540000D03*
D11*
X57943750Y-134620000D03*
D12*
X52863750Y-134620000D03*
D11*
X47783750Y-134620000D03*
%TD*%
D10*
%TO.C,SW75*%
X308610000Y-74930000D03*
X314960000Y-72390000D03*
D11*
X317500000Y-77470000D03*
D12*
X312420000Y-77470000D03*
D11*
X307340000Y-77470000D03*
%TD*%
D10*
%TO.C,SW7*%
X60960000Y-93980000D03*
X67310000Y-91440000D03*
D11*
X69850000Y-96520000D03*
D12*
X64770000Y-96520000D03*
D11*
X59690000Y-96520000D03*
%TD*%
D10*
%TO.C,SW70*%
X289560000Y-93980000D03*
X295910000Y-91440000D03*
D11*
X298450000Y-96520000D03*
D12*
X293370000Y-96520000D03*
D11*
X288290000Y-96520000D03*
%TD*%
D10*
%TO.C,SW5*%
X44291250Y-170180000D03*
X50641250Y-167640000D03*
D11*
X53181250Y-172720000D03*
D12*
X48101250Y-172720000D03*
D11*
X43021250Y-172720000D03*
%TD*%
D10*
%TO.C,SW77*%
X303847500Y-113030000D03*
X310197500Y-110490000D03*
D11*
X312737500Y-115570000D03*
D12*
X307657500Y-115570000D03*
D11*
X302577500Y-115570000D03*
%TD*%
D10*
%TO.C,SW58*%
X251460000Y-74930000D03*
X257810000Y-72390000D03*
D11*
X260350000Y-77470000D03*
D12*
X255270000Y-77470000D03*
D11*
X250190000Y-77470000D03*
%TD*%
D10*
%TO.C,SW22*%
X118110000Y-93980000D03*
X124460000Y-91440000D03*
D11*
X127000000Y-96520000D03*
D12*
X121920000Y-96520000D03*
D11*
X116840000Y-96520000D03*
%TD*%
D10*
%TO.C,SW38*%
X175260000Y-93980000D03*
X181610000Y-91440000D03*
D11*
X184150000Y-96520000D03*
D12*
X179070000Y-96520000D03*
D11*
X173990000Y-96520000D03*
%TD*%
D10*
%TO.C,SW45*%
X189547500Y-132080000D03*
X195897500Y-129540000D03*
D11*
X198437500Y-134620000D03*
D12*
X193357500Y-134620000D03*
D11*
X188277500Y-134620000D03*
%TD*%
D10*
%TO.C,SW82*%
X327660000Y-113030000D03*
X334010000Y-110490000D03*
D11*
X336550000Y-115570000D03*
D12*
X331470000Y-115570000D03*
D11*
X326390000Y-115570000D03*
%TD*%
D10*
%TO.C,SW16*%
X99060000Y-74930000D03*
X105410000Y-72390000D03*
D11*
X107950000Y-77470000D03*
D12*
X102870000Y-77470000D03*
D11*
X97790000Y-77470000D03*
%TD*%
D10*
%TO.C,SW19*%
X94297500Y-132080000D03*
X100647500Y-129540000D03*
D11*
X103187500Y-134620000D03*
D12*
X98107500Y-134620000D03*
D11*
X93027500Y-134620000D03*
%TD*%
D10*
%TO.C,SW85*%
X327660000Y-170180000D03*
X334010000Y-167640000D03*
D11*
X336550000Y-172720000D03*
D12*
X331470000Y-172720000D03*
D11*
X326390000Y-172720000D03*
%TD*%
D10*
%TO.C,SW64*%
X270510000Y-74930000D03*
X276860000Y-72390000D03*
D11*
X279400000Y-77470000D03*
D12*
X274320000Y-77470000D03*
D11*
X269240000Y-77470000D03*
%TD*%
D10*
%TO.C,SW51*%
X218122500Y-151130000D03*
X224472500Y-148590000D03*
D11*
X227012500Y-153670000D03*
D12*
X221932500Y-153670000D03*
D11*
X216852500Y-153670000D03*
%TD*%
D10*
%TO.C,SW34*%
X151447500Y-132080000D03*
X157797500Y-129540000D03*
D11*
X160337500Y-134620000D03*
D12*
X155257500Y-134620000D03*
D11*
X150177500Y-134620000D03*
%TD*%
D10*
%TO.C,SW59*%
X251460000Y-93980000D03*
X257810000Y-91440000D03*
D11*
X260350000Y-96520000D03*
D12*
X255270000Y-96520000D03*
D11*
X250190000Y-96520000D03*
%TD*%
D10*
%TO.C,SW50*%
X208597500Y-132080000D03*
X214947500Y-129540000D03*
D11*
X217487500Y-134620000D03*
D12*
X212407500Y-134620000D03*
D11*
X207327500Y-134620000D03*
%TD*%
D10*
%TO.C,SW54*%
X222885000Y-113030000D03*
X229235000Y-110490000D03*
D11*
X231775000Y-115570000D03*
D12*
X226695000Y-115570000D03*
D11*
X221615000Y-115570000D03*
%TD*%
D10*
%TO.C,SW3*%
X46672500Y-113030000D03*
X53022500Y-110490000D03*
D11*
X55562500Y-115570000D03*
D12*
X50482500Y-115570000D03*
D11*
X45402500Y-115570000D03*
%TD*%
D10*
%TO.C,SW15*%
X87153750Y-170180000D03*
X93503750Y-167640000D03*
D11*
X96043750Y-172720000D03*
D12*
X90963750Y-172720000D03*
D11*
X85883750Y-172720000D03*
%TD*%
D10*
%TO.C,SW57*%
X225266250Y-170180000D03*
X231616250Y-167640000D03*
D11*
X234156250Y-172720000D03*
D12*
X229076250Y-172720000D03*
D11*
X223996250Y-172720000D03*
%TD*%
D10*
%TO.C,SW48*%
X213360000Y-93980000D03*
X219710000Y-91440000D03*
D11*
X222250000Y-96520000D03*
D12*
X217170000Y-96520000D03*
D11*
X212090000Y-96520000D03*
%TD*%
D10*
%TO.C,SW26*%
X137160000Y-74930000D03*
X143510000Y-72390000D03*
D11*
X146050000Y-77470000D03*
D12*
X140970000Y-77470000D03*
D11*
X135890000Y-77470000D03*
%TD*%
D10*
%TO.C,SW56*%
X237172500Y-151130000D03*
X243522500Y-148590000D03*
D11*
X246062500Y-153670000D03*
D12*
X240982500Y-153670000D03*
D11*
X235902500Y-153670000D03*
%TD*%
D10*
%TO.C,SW78*%
X308610000Y-151130000D03*
X314960000Y-148590000D03*
D11*
X317500000Y-153670000D03*
D12*
X312420000Y-153670000D03*
D11*
X307340000Y-153670000D03*
%TD*%
D10*
%TO.C,SW74*%
X289560000Y-170180000D03*
X295910000Y-167640000D03*
D11*
X298450000Y-172720000D03*
D12*
X293370000Y-172720000D03*
D11*
X288290000Y-172720000D03*
%TD*%
D10*
%TO.C,SW33*%
X146685000Y-113030000D03*
X153035000Y-110490000D03*
D11*
X155575000Y-115570000D03*
D12*
X150495000Y-115570000D03*
D11*
X145415000Y-115570000D03*
%TD*%
D10*
%TO.C,SW12*%
X70485000Y-113030000D03*
X76835000Y-110490000D03*
D11*
X79375000Y-115570000D03*
D12*
X74295000Y-115570000D03*
D11*
X69215000Y-115570000D03*
%TD*%
D10*
%TO.C,SW25*%
X122872500Y-151130000D03*
X129222500Y-148590000D03*
D11*
X131762500Y-153670000D03*
D12*
X126682500Y-153670000D03*
D11*
X121602500Y-153670000D03*
%TD*%
D10*
%TO.C,SW69*%
X289560000Y-74930000D03*
X295910000Y-72390000D03*
D11*
X298450000Y-77470000D03*
D12*
X293370000Y-77470000D03*
D11*
X288290000Y-77470000D03*
%TD*%
D10*
%TO.C,SW2*%
X41910000Y-93980000D03*
X48260000Y-91440000D03*
D11*
X50800000Y-96520000D03*
D12*
X45720000Y-96520000D03*
D11*
X40640000Y-96520000D03*
%TD*%
D10*
%TO.C,SW40*%
X170497500Y-132080000D03*
X176847500Y-129540000D03*
D11*
X179387500Y-134620000D03*
D12*
X174307500Y-134620000D03*
D11*
X169227500Y-134620000D03*
%TD*%
D10*
%TO.C,SW44*%
X184785000Y-113030000D03*
X191135000Y-110490000D03*
D11*
X193675000Y-115570000D03*
D12*
X188595000Y-115570000D03*
D11*
X183515000Y-115570000D03*
%TD*%
D10*
%TO.C,SW72*%
X296703750Y-132080000D03*
X303053750Y-129540000D03*
D12*
X312413750Y-142860000D03*
D13*
X312413750Y-127620000D03*
D11*
X305593750Y-134620000D03*
D12*
X300513750Y-134620000D03*
D11*
X295433750Y-134620000D03*
D12*
X288613750Y-142860000D03*
D13*
X288613750Y-127620000D03*
%TD*%
D10*
%TO.C,SW76*%
X308610000Y-93980000D03*
X314960000Y-91440000D03*
D11*
X317500000Y-96520000D03*
D12*
X312420000Y-96520000D03*
D11*
X307340000Y-96520000D03*
%TD*%
D10*
%TO.C,SW62*%
X256222500Y-151130000D03*
X262572500Y-148590000D03*
D11*
X265112500Y-153670000D03*
D12*
X260032500Y-153670000D03*
D11*
X254952500Y-153670000D03*
%TD*%
D10*
%TO.C,SW80*%
X327660000Y-74930000D03*
X334010000Y-72390000D03*
D11*
X336550000Y-77470000D03*
D12*
X331470000Y-77470000D03*
D11*
X326390000Y-77470000D03*
%TD*%
D10*
%TO.C,SW41*%
X180022500Y-151130000D03*
X186372500Y-148590000D03*
D11*
X188912500Y-153670000D03*
D12*
X183832500Y-153670000D03*
D11*
X178752500Y-153670000D03*
%TD*%
D10*
%TO.C,SW65*%
X270510000Y-93980000D03*
X276860000Y-91440000D03*
D11*
X279400000Y-96520000D03*
D12*
X274320000Y-96520000D03*
D11*
X269240000Y-96520000D03*
%TD*%
D10*
%TO.C,SW43*%
X194310000Y-93980000D03*
X200660000Y-91440000D03*
D11*
X203200000Y-96520000D03*
D12*
X198120000Y-96520000D03*
D11*
X193040000Y-96520000D03*
%TD*%
D10*
%TO.C,SW60*%
X241935000Y-113030000D03*
X248285000Y-110490000D03*
D11*
X250825000Y-115570000D03*
D12*
X245745000Y-115570000D03*
D11*
X240665000Y-115570000D03*
%TD*%
D10*
%TO.C,SW24*%
X113347500Y-132080000D03*
X119697500Y-129540000D03*
D11*
X122237500Y-134620000D03*
D12*
X117157500Y-134620000D03*
D11*
X112077500Y-134620000D03*
%TD*%
D10*
%TO.C,SW28*%
X127635000Y-113030000D03*
X133985000Y-110490000D03*
D11*
X136525000Y-115570000D03*
D12*
X131445000Y-115570000D03*
D11*
X126365000Y-115570000D03*
%TD*%
D10*
%TO.C,SW49*%
X203835000Y-113030000D03*
X210185000Y-110490000D03*
D11*
X212725000Y-115570000D03*
D12*
X207645000Y-115570000D03*
D11*
X202565000Y-115570000D03*
%TD*%
D10*
%TO.C,SW35*%
X160972500Y-151130000D03*
X167322500Y-148590000D03*
D11*
X169862500Y-153670000D03*
D12*
X164782500Y-153670000D03*
D11*
X159702500Y-153670000D03*
%TD*%
D10*
%TO.C,SW29*%
X132397500Y-132080000D03*
X138747500Y-129540000D03*
D11*
X141287500Y-134620000D03*
D12*
X136207500Y-134620000D03*
D11*
X131127500Y-134620000D03*
%TD*%
D10*
%TO.C,SW52*%
X232410000Y-74930000D03*
X238760000Y-72390000D03*
D11*
X241300000Y-77470000D03*
D12*
X236220000Y-77470000D03*
D11*
X231140000Y-77470000D03*
%TD*%
D10*
%TO.C,SW9*%
X65722500Y-170180000D03*
X72072500Y-167640000D03*
D11*
X74612500Y-172720000D03*
D12*
X69532500Y-172720000D03*
D11*
X64452500Y-172720000D03*
%TD*%
D10*
%TO.C,SW42*%
X194310000Y-74930000D03*
X200660000Y-72390000D03*
D11*
X203200000Y-77470000D03*
D12*
X198120000Y-77470000D03*
D11*
X193040000Y-77470000D03*
%TD*%
D10*
%TO.C,SW47*%
X213360000Y-74930000D03*
X219710000Y-72390000D03*
D11*
X222250000Y-77470000D03*
D12*
X217170000Y-77470000D03*
D11*
X212090000Y-77470000D03*
%TD*%
D10*
%TO.C,SW27*%
X137160000Y-93980000D03*
X143510000Y-91440000D03*
D11*
X146050000Y-96520000D03*
D12*
X140970000Y-96520000D03*
D11*
X135890000Y-96520000D03*
%TD*%
D15*
%TO.C,J1*%
X195745000Y-171335200D03*
X181445000Y-171335200D03*
D16*
X193845000Y-174585200D03*
X193345000Y-174585200D03*
X192845000Y-174585200D03*
X192345000Y-174585200D03*
X191845000Y-174585200D03*
X191345000Y-174585200D03*
X190845000Y-174585200D03*
X190345000Y-174585200D03*
X189845000Y-174585200D03*
X189345000Y-174585200D03*
X188845000Y-174585200D03*
X188345000Y-174585200D03*
X187845000Y-174585200D03*
X187345000Y-174585200D03*
X186845000Y-174585200D03*
X186345000Y-174585200D03*
X185845000Y-174585200D03*
X185345000Y-174585200D03*
X184845000Y-174585200D03*
X184345000Y-174585200D03*
X183845000Y-174585200D03*
X183345000Y-174585200D03*
%TD*%
M02*
